# xmcd CD database file
#
# Track frame offsets:
#	150
#	12720
#	25040
#	38272
#	52230
#	71857
#	84225
#	99279
#	112677
#	123520
#
# Disc length: 1784 seconds
#
# Revision: 0
# Processed by: cddbd v1.4PL0 Copyright (c) Steve Scherf et al.
# Submitted via: CDex 1.40Release
#
DISCID=7506f60a
DTITLE=Darrell McCall - Reunion
DYEAR=1900
DGENRE=Country
TTITLE0=Waltz across Texas
TTITLE1=Still a lot of love in San Antone
TTITLE2=I'll break out again tonight
TTITLE3=Dreams of a dreamer
TTITLE4=Down the road of daddy's dream
TTITLE5=Sally Bryson
TTITLE6=Eleven roses
TTITLE7=It's the water
TTITLE8=Pins and needles
TTITLE9=The fiddlin' of Jacques Pierre Bardeauxe
EXTD=ID3G: 2
EXTT0=
EXTT1=
EXTT2=
EXTT3=
EXTT4=
EXTT5=
EXTT6=
EXTT7=
EXTT8=
EXTT9=
PLAYORDER=
